<svg width="84" height="24" viewBox="0 0 84 24" fill="none" xmlns="http://www.w3.org/2000/svg">
<path d="M1.10288 13.152C1.10288 14.664 1.65488 15.888 2.75888 16.848C3.86288 17.784 5.30288 18.264 7.10287 18.264C9.14288 18.264 10.9669 17.64 12.1429 16.128C12.7429 15.36 13.0309 14.448 13.0549 13.416C13.1269 10.992 11.6149 9.312 8.51888 8.424L6.55088 7.8C5.37488 7.464 4.77488 6.912 4.77488 6.12C4.77488 5.16 5.66288 4.464 6.91088 4.464C8.27888 4.464 9.04688 5.208 9.04688 6.336H12.5509C12.5509 4.776 12.0229 3.552 10.9669 2.64C9.93488 1.728 8.59088 1.272 6.95888 1.272C5.35088 1.272 3.98288 1.728 2.90288 2.664C1.82288 3.576 1.27088 4.752 1.27088 6.216C1.27088 8.496 2.68688 10.08 5.54288 10.968L7.53488 11.52C9.09488 11.976 9.55088 12.552 9.52688 13.392C9.50288 14.448 8.54288 15.144 7.10287 15.144C5.59088 15.144 4.70288 14.28 4.63088 13.152H1.10288ZM22.6076 18H26.7116L21.1196 11.736L25.7756 6.792H21.5276L18.8636 9.864V0.696H15.5516V18H18.8636V13.56L22.6076 18ZM28.1844 6.792V18H31.4964V6.792H28.1844ZM29.8404 0.696C28.6884 0.696 27.7524 1.56 27.7524 2.64C27.7524 3.72 28.6884 4.608 29.8404 4.608C30.9684 4.608 31.8804 3.72 31.8804 2.64C31.8804 1.56 30.9684 0.696 29.8404 0.696ZM38.9274 2.496H35.6154V6.792H33.5754V9.432H35.6154V18H38.9274V9.432H41.2794V6.792H38.9274V2.496ZM46.6611 14.088C46.6611 11.112 47.5971 9.624 49.4451 9.624C50.1171 9.624 50.6931 9.744 51.1491 9.96L51.7491 6.96C51.1971 6.696 50.5731 6.552 49.8291 6.552C48.5571 6.552 47.2131 7.56 46.6611 9.504V6.792H43.3251V18H46.6611V14.088ZM53.4735 6.792V18H56.7855V6.792H53.4735ZM55.1295 0.696C53.9775 0.696 53.0415 1.56 53.0415 2.64C53.0415 3.72 53.9775 4.608 55.1295 4.608C56.2575 4.608 57.1695 3.72 57.1695 2.64C57.1695 1.56 56.2575 0.696 55.1295 0.696ZM63.2325 12.432C63.2325 10.872 64.3845 9.72 65.8245 9.72C67.2645 9.72 68.4165 10.824 68.4165 12.432C68.4165 13.992 67.2645 15.096 65.8245 15.096C64.3845 15.096 63.2325 14.064 63.2325 12.432ZM59.8485 23.496H63.1605V16.632C63.7125 17.616 65.0085 18.24 66.4485 18.24C67.9365 18.24 69.2085 17.688 70.2645 16.608C71.3445 15.528 71.8725 14.112 71.8725 12.36C71.8725 10.656 71.3445 9.264 70.2645 8.184C69.2085 7.104 67.9365 6.552 66.4485 6.552C65.0085 6.552 63.7125 7.152 63.1605 8.184V6.792H59.8485V23.496ZM78.654 13.776C79.446 13.992 79.758 14.256 79.758 14.736C79.758 15.288 79.158 15.648 78.39 15.672C77.502 15.672 76.758 15.048 76.734 14.376H73.614C73.638 15.552 74.094 16.512 75.03 17.208C75.966 17.904 77.07 18.24 78.294 18.24C79.59 18.24 80.718 17.928 81.678 17.328C82.662 16.728 83.142 15.864 83.142 14.736C83.142 14.064 83.046 13.44 82.062 12.504C81.582 12.048 80.934 11.688 80.094 11.472L78.198 10.968C77.574 10.8 77.238 10.536 77.214 10.128C77.19 9.624 77.646 9.288 78.39 9.288C79.23 9.288 79.638 9.624 79.662 10.272H82.806C82.782 9 82.326 8.064 81.438 7.464C80.55 6.864 79.47 6.552 78.198 6.552C77.022 6.552 76.014 6.888 75.15 7.536C74.286 8.184 73.854 8.904 73.83 9.744C73.806 10.44 73.854 10.824 74.214 11.592C74.598 12.336 75.63 12.984 77.19 13.392L78.654 13.776Z" fill="white"/>
</svg>
